<svg viewBox="0 0 800 800" xmlns="http://www.w3.org/2000/svg">
  <rect width="800" height="800" fill="#f9f9f9"/>

  <!-- Box body -->
  <rect x="220" y="230" width="360" height="280" rx="4" fill="#ffffff" stroke="#d4d4d8" stroke-width="1.5"/>
  <!-- Box top face (3D effect) -->
  <polygon points="220,230 260,195 620,195 580,230" fill="#fafafa" stroke="#d4d4d8" stroke-width="1"/>
  <!-- Box right face -->
  <polygon points="580,230 620,195 620,475 580,510" fill="#f5f5f5" stroke="#d4d4d8" stroke-width="1"/>

  <!-- Box label area -->
  <rect x="260" y="270" width="280" height="200" fill="#ffffff" stroke="#111111" stroke-width="0.75"/>

  <!-- Brand -->
  <text x="400" y="305" text-anchor="middle" font-family="Georgia, 'Times New Roman', serif" font-size="16" fill="#111111" font-weight="600" letter-spacing="1">BACwater &amp; Co.</text>
  <!-- Divider -->
  <line x1="300" y1="318" x2="500" y2="318" stroke="#111111" stroke-width="0.5"/>

  <!-- Product name -->
  <text x="400" y="342" text-anchor="middle" font-family="Arial, Helvetica, sans-serif" font-size="8" fill="#71717a" letter-spacing="3">INSULIN SYRINGES</text>
  <text x="400" y="375" text-anchor="middle" font-family="Georgia, 'Times New Roman', serif" font-size="28" fill="#111111">1 mL</text>
  <text x="400" y="395" text-anchor="middle" font-family="Arial, Helvetica, sans-serif" font-size="8" fill="#71717a" letter-spacing="2">100 UNITS  ·  29G × ½"</text>

  <!-- Count badge -->
  <rect x="360" y="415" width="80" height="26" rx="2" fill="#111111"/>
  <text x="400" y="433" text-anchor="middle" font-family="Arial, Helvetica, sans-serif" font-size="9" fill="#ffffff" letter-spacing="2">100 COUNT</text>

  <!-- Fine print -->
  <text x="400" y="460" text-anchor="middle" font-family="Arial, Helvetica, sans-serif" font-size="5" fill="#a1a1aa" letter-spacing="1">STERILE  ·  SINGLE USE  ·  LATEX FREE</text>

  <!-- Syringe illustration (small, beside box) -->
  <g transform="translate(610, 300) rotate(15)">
    <!-- Barrel -->
    <rect x="0" y="-4" width="80" height="8" rx="2" fill="#f5f5f5" stroke="#d4d4d8" stroke-width="0.75"/>
    <!-- Plunger -->
    <rect x="70" y="-3" width="30" height="6" rx="1" fill="#e4e4e7"/>
    <rect x="97" y="-6" width="4" height="12" rx="1" fill="#d4d4d8"/>
    <!-- Needle -->
    <line x1="0" y1="0" x2="-25" y2="0" stroke="#a1a1aa" stroke-width="0.75"/>
    <!-- Needle cap -->
    <rect x="-30" y="-3" width="8" height="6" rx="1" fill="#f97316" opacity="0.6"/>
    <!-- Graduations -->
    <line x1="15" y1="-4" x2="15" y2="-1" stroke="#d4d4d8" stroke-width="0.4"/>
    <line x1="30" y1="-4" x2="30" y2="0" stroke="#d4d4d8" stroke-width="0.5"/>
    <line x1="45" y1="-4" x2="45" y2="-1" stroke="#d4d4d8" stroke-width="0.4"/>
    <line x1="60" y1="-4" x2="60" y2="0" stroke="#d4d4d8" stroke-width="0.5"/>
  </g>

  <!-- Bottom text -->
  <text x="400" y="575" text-anchor="middle" font-family="Georgia, 'Times New Roman', serif" font-size="13" fill="#111111" letter-spacing="1">Insulin Syringes</text>
  <text x="400" y="595" text-anchor="middle" font-family="Arial, Helvetica, sans-serif" font-size="9" fill="#71717a" letter-spacing="1.5">1 mL / 100u  ·  100 PACK</text>
</svg>